<svg xmlns="http://www.w3.org/2000/svg" viewBox="0 0 1280 920" width="1280" height="920" font-family="Inter, 'Segoe UI', 'Helvetica Neue', Arial, sans-serif"><rect width="1280" height="920" fill="#ffffff"/><defs><marker id="ar--475569" viewBox="0 0 10 10" refX="9" refY="5" markerWidth="7" markerHeight="7" orient="auto-start-reverse"><path d="M 0 0 L 10 5 L 0 10 z" fill="#475569"/></marker><marker id="ar--94a3b8" viewBox="0 0 10 10" refX="9" refY="5" markerWidth="7" markerHeight="7" orient="auto-start-reverse"><path d="M 0 0 L 10 5 L 0 10 z" fill="#94a3b8"/></marker><marker id="ar--0d9488" viewBox="0 0 10 10" refX="9" refY="5" markerWidth="7" markerHeight="7" orient="auto-start-reverse"><path d="M 0 0 L 10 5 L 0 10 z" fill="#0d9488"/></marker><marker id="ar--7c3aed" viewBox="0 0 10 10" refX="9" refY="5" markerWidth="7" markerHeight="7" orient="auto-start-reverse"><path d="M 0 0 L 10 5 L 0 10 z" fill="#7c3aed"/></marker><filter id="sh" x="-20%" y="-20%" width="140%" height="140%"><feDropShadow dx="0" dy="2" stdDeviation="3" flood-color="#0f172a" flood-opacity="0.10"/></filter></defs><rect x="29.0" y="70" width="122" height="42" rx="11" fill="#f1f5f9" stroke="#334155" stroke-width="2" filter="url(#sh)"/>
<rect x="29.0" y="70" width="6" height="42" rx="3" fill="#334155"/>
<text x="90.0" y="97" font-family="Inter, 'Segoe UI', 'Helvetica Neue', Arial, sans-serif" font-size="12.5" font-weight="700" fill="#0f172a" text-anchor="middle" style="">User</text>
<line x1="90.0" y1="114" x2="90.0" y2="894" stroke="#94a3b8" stroke-width="1.4" stroke-dasharray="4 6"/>
<rect x="186.14285714285714" y="70" width="122" height="42" rx="11" fill="#eef2ff" stroke="#4f46e5" stroke-width="2" filter="url(#sh)"/>
<rect x="186.14285714285714" y="70" width="6" height="42" rx="3" fill="#4f46e5"/>
<text x="247.14285714285714" y="97" font-family="Inter, 'Segoe UI', 'Helvetica Neue', Arial, sans-serif" font-size="12.5" font-weight="700" fill="#0f172a" text-anchor="middle" style="">Coordinator</text>
<line x1="247.14285714285714" y1="114" x2="247.14285714285714" y2="894" stroke="#94a3b8" stroke-width="1.4" stroke-dasharray="4 6"/>
<rect x="343.2857142857143" y="70" width="122" height="42" rx="11" fill="#eef2ff" stroke="#4f46e5" stroke-width="2" filter="url(#sh)"/>
<rect x="343.2857142857143" y="70" width="6" height="42" rx="3" fill="#4f46e5"/>
<text x="404.2857142857143" y="97" font-family="Inter, 'Segoe UI', 'Helvetica Neue', Arial, sans-serif" font-size="12.5" font-weight="700" fill="#0f172a" text-anchor="middle" style="">Planner</text>
<line x1="404.2857142857143" y1="114" x2="404.2857142857143" y2="894" stroke="#94a3b8" stroke-width="1.4" stroke-dasharray="4 6"/>
<rect x="500.42857142857144" y="70" width="122" height="42" rx="11" fill="#eef2ff" stroke="#4f46e5" stroke-width="2" filter="url(#sh)"/>
<rect x="500.42857142857144" y="70" width="6" height="42" rx="3" fill="#4f46e5"/>
<text x="561.4285714285714" y="97" font-family="Inter, 'Segoe UI', 'Helvetica Neue', Arial, sans-serif" font-size="12.5" font-weight="700" fill="#0f172a" text-anchor="middle" style="">Researcher</text>
<line x1="561.4285714285714" y1="114" x2="561.4285714285714" y2="894" stroke="#94a3b8" stroke-width="1.4" stroke-dasharray="4 6"/>
<rect x="645.5714285714286" y="70" width="146" height="42" rx="11" fill="#ecfeff" stroke="#0d9488" stroke-width="2" filter="url(#sh)"/>
<rect x="645.5714285714286" y="70" width="6" height="42" rx="3" fill="#0d9488"/>
<text x="718.5714285714286" y="97" font-family="Inter, 'Segoe UI', 'Helvetica Neue', Arial, sans-serif" font-size="12.5" font-weight="700" fill="#0f172a" text-anchor="middle" style="">Tavily / Search</text>
<line x1="718.5714285714286" y1="114" x2="718.5714285714286" y2="894" stroke="#94a3b8" stroke-width="1.4" stroke-dasharray="4 6"/>
<rect x="814.7142857142857" y="70" width="122" height="42" rx="11" fill="#eef2ff" stroke="#4f46e5" stroke-width="2" filter="url(#sh)"/>
<rect x="814.7142857142857" y="70" width="6" height="42" rx="3" fill="#4f46e5"/>
<text x="875.7142857142857" y="97" font-family="Inter, 'Segoe UI', 'Helvetica Neue', Arial, sans-serif" font-size="12.5" font-weight="700" fill="#0f172a" text-anchor="middle" style="">Coder</text>
<line x1="875.7142857142857" y1="114" x2="875.7142857142857" y2="894" stroke="#94a3b8" stroke-width="1.4" stroke-dasharray="4 6"/>
<rect x="971.8571428571429" y="70" width="122" height="42" rx="11" fill="#f1f5f9" stroke="#334155" stroke-width="2" filter="url(#sh)"/>
<rect x="971.8571428571429" y="70" width="6" height="42" rx="3" fill="#334155"/>
<text x="1032.857142857143" y="97" font-family="Inter, 'Segoe UI', 'Helvetica Neue', Arial, sans-serif" font-size="12.5" font-weight="700" fill="#0f172a" text-anchor="middle" style="">K8s Sandbox</text>
<line x1="1032.857142857143" y1="114" x2="1032.857142857143" y2="894" stroke="#94a3b8" stroke-width="1.4" stroke-dasharray="4 6"/>
<rect x="1129.0" y="70" width="122" height="42" rx="11" fill="#eef2ff" stroke="#4f46e5" stroke-width="2" filter="url(#sh)"/>
<rect x="1129.0" y="70" width="6" height="42" rx="3" fill="#4f46e5"/>
<text x="1190.0" y="97" font-family="Inter, 'Segoe UI', 'Helvetica Neue', Arial, sans-serif" font-size="12.5" font-weight="700" fill="#0f172a" text-anchor="middle" style="">Reporter</text>
<line x1="1190.0" y1="114" x2="1190.0" y2="894" stroke="#94a3b8" stroke-width="1.4" stroke-dasharray="4 6"/>
<line x1="90.0" y1="142" x2="247.14285714285714" y2="142" stroke="#94a3b8" stroke-width="2.2"  marker-end="url(#ar--94a3b8)"/>
<rect x="112.97142857142856" y="123" width="111.2" height="17" rx="6" fill="#ffffff" opacity="0.96"/>
<text x="168.57142857142856" y="136" font-family="Inter, 'Segoe UI', 'Helvetica Neue', Arial, sans-serif" font-size="11.5" font-weight="600" fill="#0f172a" text-anchor="middle" style="">research request</text>
<line x1="247.14285714285714" y1="192" x2="404.2857142857143" y2="192" stroke="#94a3b8" stroke-width="2.2"  marker-end="url(#ar--94a3b8)"/>
<rect x="217.4142857142857" y="173" width="216.6" height="17" rx="6" fill="#ffffff" opacity="0.96"/>
<text x="325.7142857142857" y="186" font-family="Inter, 'Segoe UI', 'Helvetica Neue', Arial, sans-serif" font-size="11.5" font-weight="600" fill="#0f172a" text-anchor="middle" style="">classified as research → hand off</text>
<line x1="404.2857142857143" y1="242" x2="90.0" y2="242" stroke="#94a3b8" stroke-width="2.2" stroke-dasharray="7 5" marker-end="url(#ar--94a3b8)"/>
<rect x="179.14285714285714" y="223" width="136.0" height="17" rx="6" fill="#ffffff" opacity="0.96"/>
<text x="247.14285714285714" y="236" font-family="Inter, 'Segoe UI', 'Helvetica Neue', Arial, sans-serif" font-size="11.5" font-weight="600" fill="#0f172a" text-anchor="middle" style="">propose plan (steps)</text>
<line x1="90.0" y1="292" x2="404.2857142857143" y2="292" stroke="#94a3b8" stroke-width="2.2"  marker-end="url(#ar--94a3b8)"/>
<rect x="185.34285714285713" y="273" width="123.60000000000001" height="17" rx="6" fill="#ffffff" opacity="0.96"/>
<text x="247.14285714285714" y="286" font-family="Inter, 'Segoe UI', 'Helvetica Neue', Arial, sans-serif" font-size="11.5" font-weight="600" fill="#0f172a" text-anchor="middle" style="">accept / edit plan</text>
<line x1="60" y1="328" x2="1220" y2="328" stroke="#cbd5e1" stroke-width="1.2" stroke-dasharray="2 6"/>
<rect x="542.9" y="318" width="194.2" height="20" rx="10" fill="#e2e8f0"/>
<text x="640.0" y="332" font-family="Inter, 'Segoe UI', 'Helvetica Neue', Arial, sans-serif" font-size="11.5" font-weight="700" fill="#475569" text-anchor="middle" style="">loop  ·  for each plan step</text>
<line x1="404.2857142857143" y1="392" x2="561.4285714285714" y2="392" stroke="#94a3b8" stroke-width="2.2"  marker-end="url(#ar--94a3b8)"/>
<rect x="411.75714285714287" y="373" width="142.20000000000002" height="17" rx="6" fill="#ffffff" opacity="0.96"/>
<text x="482.8571428571429" y="386" font-family="Inter, 'Segoe UI', 'Helvetica Neue', Arial, sans-serif" font-size="11.5" font-weight="600" fill="#0f172a" text-anchor="middle" style="">execute research step</text>
<line x1="561.4285714285714" y1="442" x2="718.5714285714286" y2="442" stroke="#94a3b8" stroke-width="2.2"  marker-end="url(#ar--94a3b8)"/>
<rect x="578.2" y="423" width="123.60000000000001" height="17" rx="6" fill="#ffffff" opacity="0.96"/>
<text x="640.0" y="436" font-family="Inter, 'Segoe UI', 'Helvetica Neue', Arial, sans-serif" font-size="11.5" font-weight="600" fill="#0f172a" text-anchor="middle" style="">web_search / crawl</text>
<line x1="718.5714285714286" y1="492" x2="561.4285714285714" y2="492" stroke="#94a3b8" stroke-width="2.2" stroke-dasharray="7 5" marker-end="url(#ar--94a3b8)"/>
<rect x="578.2" y="473" width="123.60000000000001" height="17" rx="6" fill="#ffffff" opacity="0.96"/>
<text x="640.0" y="486" font-family="Inter, 'Segoe UI', 'Helvetica Neue', Arial, sans-serif" font-size="11.5" font-weight="600" fill="#0f172a" text-anchor="middle" style="">sources + snippets</text>
<line x1="561.4285714285714" y1="542" x2="875.7142857142857" y2="542" stroke="#94a3b8" stroke-width="2.2"  marker-end="url(#ar--94a3b8)"/>
<rect x="616.4714285714285" y="523" width="204.20000000000002" height="17" rx="6" fill="#ffffff" opacity="0.96"/>
<text x="718.5714285714286" y="536" font-family="Inter, 'Segoe UI', 'Helvetica Neue', Arial, sans-serif" font-size="11.5" font-weight="600" fill="#0f172a" text-anchor="middle" style="">hand structured data to analyst</text>
<line x1="875.7142857142857" y1="592" x2="1032.857142857143" y2="592" stroke="#94a3b8" stroke-width="2.2"  marker-end="url(#ar--94a3b8)"/>
<rect x="870.7857142857142" y="573" width="167.0" height="17" rx="6" fill="#ffffff" opacity="0.96"/>
<text x="954.2857142857142" y="586" font-family="Inter, 'Segoe UI', 'Helvetica Neue', Arial, sans-serif" font-size="11.5" font-weight="600" fill="#0f172a" text-anchor="middle" style="">run python (charts, calc)</text>
<line x1="1032.857142857143" y1="642" x2="875.7142857142857" y2="642" stroke="#94a3b8" stroke-width="2.2" stroke-dasharray="7 5" marker-end="url(#ar--94a3b8)"/>
<rect x="892.4857142857143" y="623" width="123.60000000000001" height="17" rx="6" fill="#ffffff" opacity="0.96"/>
<text x="954.2857142857142" y="636" font-family="Inter, 'Segoe UI', 'Helvetica Neue', Arial, sans-serif" font-size="11.5" font-weight="600" fill="#0f172a" text-anchor="middle" style="">stdout / artifacts</text>
<rect x="233.14285714285714" y="672" width="970.8571428571429" height="30" rx="8" fill="#fffbeb" stroke="#d97706" stroke-width="1.6"/>
<text x="718.5714285714286" y="691" font-family="Inter, 'Segoe UI', 'Helvetica Neue', Arial, sans-serif" font-size="11.5" font-weight="600" fill="#0f172a" text-anchor="middle" style="">every node calls the cloud LLM; state saved to checkpointer after each step</text>
<line x1="60" y1="728" x2="1220" y2="728" stroke="#cbd5e1" stroke-width="1.2" stroke-dasharray="2 6"/>
<rect x="605.6" y="718" width="68.8" height="20" rx="10" fill="#e2e8f0"/>
<text x="640.0" y="732" font-family="Inter, 'Segoe UI', 'Helvetica Neue', Arial, sans-serif" font-size="11.5" font-weight="700" fill="#475569" text-anchor="middle" style="">end loop</text>
<line x1="875.7142857142857" y1="792" x2="1190.0" y2="792" stroke="#94a3b8" stroke-width="2.2"  marker-end="url(#ar--94a3b8)"/>
<rect x="967.9571428571429" y="773" width="129.8" height="17" rx="6" fill="#ffffff" opacity="0.96"/>
<text x="1032.857142857143" y="786" font-family="Inter, 'Segoe UI', 'Helvetica Neue', Arial, sans-serif" font-size="11.5" font-weight="600" fill="#0f172a" text-anchor="middle" style="">findings + evidence</text>
<line x1="1190.0" y1="842" x2="90.0" y2="842" stroke="#94a3b8" stroke-width="2.2" stroke-dasharray="7 5" marker-end="url(#ar--94a3b8)"/>
<rect x="544.1" y="823" width="191.8" height="17" rx="6" fill="#ffffff" opacity="0.96"/>
<text x="640.0" y="836" font-family="Inter, 'Segoe UI', 'Helvetica Neue', Arial, sans-serif" font-size="11.5" font-weight="600" fill="#0f172a" text-anchor="middle" style="">final cited report (streamed)</text>
<text x="640.0" y="34" font-family="Inter, 'Segoe UI', 'Helvetica Neue', Arial, sans-serif" font-size="21" font-weight="800" fill="#0f172a" text-anchor="middle" style="">DeerFlow — Sequence of one research task</text>
<text x="640.0" y="58" font-family="Inter, 'Segoe UI', 'Helvetica Neue', Arial, sans-serif" font-size="13.5" font-weight="normal" fill="#475569" text-anchor="middle" style="">Human-in-the-loop plan, then a research/analysis loop, then synthesis</text></svg>