<svg xmlns="http://www.w3.org/2000/svg" viewBox="0 0 1220 722" width="1220" height="722" font-family="Inter, 'Segoe UI', 'Helvetica Neue', Arial, sans-serif"><rect width="1220" height="722" fill="#ffffff"/><defs><marker id="ar--475569" viewBox="0 0 10 10" refX="9" refY="5" markerWidth="7" markerHeight="7" orient="auto-start-reverse"><path d="M 0 0 L 10 5 L 0 10 z" fill="#475569"/></marker><marker id="ar--94a3b8" viewBox="0 0 10 10" refX="9" refY="5" markerWidth="7" markerHeight="7" orient="auto-start-reverse"><path d="M 0 0 L 10 5 L 0 10 z" fill="#94a3b8"/></marker><marker id="ar--0d9488" viewBox="0 0 10 10" refX="9" refY="5" markerWidth="7" markerHeight="7" orient="auto-start-reverse"><path d="M 0 0 L 10 5 L 0 10 z" fill="#0d9488"/></marker><marker id="ar--7c3aed" viewBox="0 0 10 10" refX="9" refY="5" markerWidth="7" markerHeight="7" orient="auto-start-reverse"><path d="M 0 0 L 10 5 L 0 10 z" fill="#7c3aed"/></marker><filter id="sh" x="-20%" y="-20%" width="140%" height="140%"><feDropShadow dx="0" dy="2" stdDeviation="3" flood-color="#0f172a" flood-opacity="0.10"/></filter></defs><text x="460.0" y="132" font-family="Inter, 'Segoe UI', 'Helvetica Neue', Arial, sans-serif" font-size="15" font-weight="800" fill="#4f46e5" text-anchor="middle" style="">DeerFlow (as shipped)</text>
<text x="865.0" y="132" font-family="Inter, 'Segoe UI', 'Helvetica Neue', Arial, sans-serif" font-size="15" font-weight="800" fill="#059669" text-anchor="middle" style="">Open-source equivalent</text>
<text x="150" y="132" font-family="Inter, 'Segoe UI', 'Helvetica Neue', Arial, sans-serif" font-size="15" font-weight="800" fill="#475569" text-anchor="middle" style="">Concern</text>
<text x="150" y="183.0" font-family="Inter, 'Segoe UI', 'Helvetica Neue', Arial, sans-serif" font-size="13" font-weight="700" fill="#0f172a" text-anchor="middle" style="">Orchestration</text>
<rect x="285" y="158" width="350" height="42" rx="12" ry="12" fill="#f1f5f9" stroke="#334155" stroke-width="2" filter="url(#sh)"/>
<rect x="285" y="158" width="6" height="42" rx="3" fill="#334155"/>
<text x="460.0" y="184" font-family="Inter, 'Segoe UI', 'Helvetica Neue', Arial, sans-serif" font-size="12.5" font-weight="700" fill="#0f172a" text-anchor="middle" style="">LangGraph StateGraph</text>
<rect x="690" y="158" width="350" height="42" rx="12" ry="12" fill="#ecfdf5" stroke="#059669" stroke-width="2" filter="url(#sh)"/>
<rect x="690" y="158" width="6" height="42" rx="3" fill="#059669"/>
<text x="865.0" y="184" font-family="Inter, 'Segoe UI', 'Helvetica Neue', Arial, sans-serif" font-size="12.5" font-weight="700" fill="#0f172a" text-anchor="middle" style="">LangGraph StateGraph</text>
<path d="M 641 179.0 L 684 179.0" fill="none" stroke="#94a3b8" stroke-width="2.2"  marker-end="url(#ar--94a3b8)"/>
<rect x="1054" y="166.0" width="52" height="26" rx="13" fill="#059669"/>
<text x="1080.0" y="183.0" font-family="Inter, 'Segoe UI', 'Helvetica Neue', Arial, sans-serif" font-size="12" font-weight="800" fill="#ffffff" text-anchor="middle" style="">keep</text>
<text x="150" y="241.0" font-family="Inter, 'Segoe UI', 'Helvetica Neue', Arial, sans-serif" font-size="13" font-weight="700" fill="#0f172a" text-anchor="middle" style="">Reasoning model</text>
<rect x="285" y="216" width="350" height="42" rx="12" ry="12" fill="#f1f5f9" stroke="#334155" stroke-width="2" filter="url(#sh)"/>
<rect x="285" y="216" width="6" height="42" rx="3" fill="#334155"/>
<text x="460.0" y="242" font-family="Inter, 'Segoe UI', 'Helvetica Neue', Arial, sans-serif" font-size="12.5" font-weight="700" fill="#0f172a" text-anchor="middle" style="">Cloud LLM (provider key)</text>
<rect x="690" y="216" width="350" height="42" rx="12" ry="12" fill="#f5f3ff" stroke="#7c3aed" stroke-width="2" filter="url(#sh)"/>
<rect x="690" y="216" width="6" height="42" rx="3" fill="#7c3aed"/>
<text x="865.0" y="242" font-family="Inter, 'Segoe UI', 'Helvetica Neue', Arial, sans-serif" font-size="12.5" font-weight="700" fill="#0f172a" text-anchor="middle" style="">Ollama · Qwen2.5 / Llama-3.1</text>
<path d="M 641 237.0 L 684 237.0" fill="none" stroke="#94a3b8" stroke-width="2.2"  marker-end="url(#ar--94a3b8)"/>
<rect x="1054" y="224.0" width="52" height="26" rx="13" fill="#d97706"/>
<text x="1080.0" y="241.0" font-family="Inter, 'Segoe UI', 'Helvetica Neue', Arial, sans-serif" font-size="12" font-weight="800" fill="#ffffff" text-anchor="middle" style="">swap</text>
<text x="150" y="299.0" font-family="Inter, 'Segoe UI', 'Helvetica Neue', Arial, sans-serif" font-size="13" font-weight="700" fill="#0f172a" text-anchor="middle" style="">Web search</text>
<rect x="285" y="274" width="350" height="42" rx="12" ry="12" fill="#f1f5f9" stroke="#334155" stroke-width="2" filter="url(#sh)"/>
<rect x="285" y="274" width="6" height="42" rx="3" fill="#334155"/>
<text x="460.0" y="300" font-family="Inter, 'Segoe UI', 'Helvetica Neue', Arial, sans-serif" font-size="12.5" font-weight="700" fill="#0f172a" text-anchor="middle" style="">Tavily / Brave (paid keys)</text>
<rect x="690" y="274" width="350" height="42" rx="12" ry="12" fill="#ecfeff" stroke="#0d9488" stroke-width="2" filter="url(#sh)"/>
<rect x="690" y="274" width="6" height="42" rx="3" fill="#0d9488"/>
<text x="865.0" y="300" font-family="Inter, 'Segoe UI', 'Helvetica Neue', Arial, sans-serif" font-size="12.5" font-weight="700" fill="#0f172a" text-anchor="middle" style="">SearxNG (self-host) · DuckDuckGo</text>
<path d="M 641 295.0 L 684 295.0" fill="none" stroke="#94a3b8" stroke-width="2.2"  marker-end="url(#ar--94a3b8)"/>
<rect x="1054" y="282.0" width="52" height="26" rx="13" fill="#d97706"/>
<text x="1080.0" y="299.0" font-family="Inter, 'Segoe UI', 'Helvetica Neue', Arial, sans-serif" font-size="12" font-weight="800" fill="#ffffff" text-anchor="middle" style="">swap</text>
<text x="150" y="357.0" font-family="Inter, 'Segoe UI', 'Helvetica Neue', Arial, sans-serif" font-size="13" font-weight="700" fill="#0f172a" text-anchor="middle" style="">Web extraction</text>
<rect x="285" y="332" width="350" height="42" rx="12" ry="12" fill="#f1f5f9" stroke="#334155" stroke-width="2" filter="url(#sh)"/>
<rect x="285" y="332" width="6" height="42" rx="3" fill="#334155"/>
<text x="460.0" y="358" font-family="Inter, 'Segoe UI', 'Helvetica Neue', Arial, sans-serif" font-size="12.5" font-weight="700" fill="#0f172a" text-anchor="middle" style="">Jina / hosted reader</text>
<rect x="690" y="332" width="350" height="42" rx="12" ry="12" fill="#ecfeff" stroke="#0d9488" stroke-width="2" filter="url(#sh)"/>
<rect x="690" y="332" width="6" height="42" rx="3" fill="#0d9488"/>
<text x="865.0" y="358" font-family="Inter, 'Segoe UI', 'Helvetica Neue', Arial, sans-serif" font-size="12.5" font-weight="700" fill="#0f172a" text-anchor="middle" style="">trafilatura · Playwright</text>
<path d="M 641 353.0 L 684 353.0" fill="none" stroke="#94a3b8" stroke-width="2.2"  marker-end="url(#ar--94a3b8)"/>
<rect x="1054" y="340.0" width="52" height="26" rx="13" fill="#d97706"/>
<text x="1080.0" y="357.0" font-family="Inter, 'Segoe UI', 'Helvetica Neue', Arial, sans-serif" font-size="12" font-weight="800" fill="#ffffff" text-anchor="middle" style="">swap</text>
<text x="150" y="415.0" font-family="Inter, 'Segoe UI', 'Helvetica Neue', Arial, sans-serif" font-size="13" font-weight="700" fill="#0f172a" text-anchor="middle" style="">Code sandbox</text>
<rect x="285" y="390" width="350" height="42" rx="12" ry="12" fill="#f1f5f9" stroke="#334155" stroke-width="2" filter="url(#sh)"/>
<rect x="285" y="390" width="6" height="42" rx="3" fill="#334155"/>
<text x="460.0" y="416" font-family="Inter, 'Segoe UI', 'Helvetica Neue', Arial, sans-serif" font-size="12.5" font-weight="700" fill="#0f172a" text-anchor="middle" style="">Managed K8s provisioner</text>
<rect x="690" y="390" width="350" height="42" rx="12" ry="12" fill="#f1f5f9" stroke="#334155" stroke-width="2" filter="url(#sh)"/>
<rect x="690" y="390" width="6" height="42" rx="3" fill="#334155"/>
<text x="865.0" y="416" font-family="Inter, 'Segoe UI', 'Helvetica Neue', Arial, sans-serif" font-size="12.5" font-weight="700" fill="#0f172a" text-anchor="middle" style="">Docker + nsjail exec</text>
<path d="M 641 411.0 L 684 411.0" fill="none" stroke="#94a3b8" stroke-width="2.2"  marker-end="url(#ar--94a3b8)"/>
<rect x="1054" y="398.0" width="52" height="26" rx="13" fill="#d97706"/>
<text x="1080.0" y="415.0" font-family="Inter, 'Segoe UI', 'Helvetica Neue', Arial, sans-serif" font-size="12" font-weight="800" fill="#ffffff" text-anchor="middle" style="">swap</text>
<text x="150" y="473.0" font-family="Inter, 'Segoe UI', 'Helvetica Neue', Arial, sans-serif" font-size="13" font-weight="700" fill="#0f172a" text-anchor="middle" style="">State / resume</text>
<rect x="285" y="448" width="350" height="42" rx="12" ry="12" fill="#f1f5f9" stroke="#334155" stroke-width="2" filter="url(#sh)"/>
<rect x="285" y="448" width="6" height="42" rx="3" fill="#334155"/>
<text x="460.0" y="474" font-family="Inter, 'Segoe UI', 'Helvetica Neue', Arial, sans-serif" font-size="12.5" font-weight="700" fill="#0f172a" text-anchor="middle" style="">Postgres checkpointer</text>
<rect x="690" y="448" width="350" height="42" rx="12" ry="12" fill="#f1f5f9" stroke="#334155" stroke-width="2" filter="url(#sh)"/>
<rect x="690" y="448" width="6" height="42" rx="3" fill="#334155"/>
<text x="865.0" y="474" font-family="Inter, 'Segoe UI', 'Helvetica Neue', Arial, sans-serif" font-size="12.5" font-weight="700" fill="#0f172a" text-anchor="middle" style="">SQLite / Postgres checkpointer</text>
<path d="M 641 469.0 L 684 469.0" fill="none" stroke="#94a3b8" stroke-width="2.2"  marker-end="url(#ar--94a3b8)"/>
<rect x="1054" y="456.0" width="52" height="26" rx="13" fill="#059669"/>
<text x="1080.0" y="473.0" font-family="Inter, 'Segoe UI', 'Helvetica Neue', Arial, sans-serif" font-size="12" font-weight="800" fill="#ffffff" text-anchor="middle" style="">keep</text>
<text x="150" y="531.0" font-family="Inter, 'Segoe UI', 'Helvetica Neue', Arial, sans-serif" font-size="13" font-weight="700" fill="#0f172a" text-anchor="middle" style="">External tools</text>
<rect x="285" y="506" width="350" height="42" rx="12" ry="12" fill="#f1f5f9" stroke="#334155" stroke-width="2" filter="url(#sh)"/>
<rect x="285" y="506" width="6" height="42" rx="3" fill="#334155"/>
<text x="460.0" y="532" font-family="Inter, 'Segoe UI', 'Helvetica Neue', Arial, sans-serif" font-size="12.5" font-weight="700" fill="#0f172a" text-anchor="middle" style="">MCP servers</text>
<rect x="690" y="506" width="350" height="42" rx="12" ry="12" fill="#ecfdf5" stroke="#059669" stroke-width="2" filter="url(#sh)"/>
<rect x="690" y="506" width="6" height="42" rx="3" fill="#059669"/>
<text x="865.0" y="532" font-family="Inter, 'Segoe UI', 'Helvetica Neue', Arial, sans-serif" font-size="12.5" font-weight="700" fill="#0f172a" text-anchor="middle" style="">MCP servers (open protocol)</text>
<path d="M 641 527.0 L 684 527.0" fill="none" stroke="#94a3b8" stroke-width="2.2"  marker-end="url(#ar--94a3b8)"/>
<rect x="1054" y="514.0" width="52" height="26" rx="13" fill="#059669"/>
<text x="1080.0" y="531.0" font-family="Inter, 'Segoe UI', 'Helvetica Neue', Arial, sans-serif" font-size="12" font-weight="800" fill="#ffffff" text-anchor="middle" style="">keep</text>
<text x="150" y="589.0" font-family="Inter, 'Segoe UI', 'Helvetica Neue', Arial, sans-serif" font-size="13" font-weight="700" fill="#0f172a" text-anchor="middle" style="">Gateway / stream</text>
<rect x="285" y="564" width="350" height="42" rx="12" ry="12" fill="#f1f5f9" stroke="#334155" stroke-width="2" filter="url(#sh)"/>
<rect x="285" y="564" width="6" height="42" rx="3" fill="#334155"/>
<text x="460.0" y="590" font-family="Inter, 'Segoe UI', 'Helvetica Neue', Arial, sans-serif" font-size="12.5" font-weight="700" fill="#0f172a" text-anchor="middle" style="">Message gateway (REST+SSE)</text>
<rect x="690" y="564" width="350" height="42" rx="12" ry="12" fill="#f1f5f9" stroke="#334155" stroke-width="2" filter="url(#sh)"/>
<rect x="690" y="564" width="6" height="42" rx="3" fill="#334155"/>
<text x="865.0" y="590" font-family="Inter, 'Segoe UI', 'Helvetica Neue', Arial, sans-serif" font-size="12.5" font-weight="700" fill="#0f172a" text-anchor="middle" style="">FastAPI + SSE</text>
<path d="M 641 585.0 L 684 585.0" fill="none" stroke="#94a3b8" stroke-width="2.2"  marker-end="url(#ar--94a3b8)"/>
<rect x="1054" y="572.0" width="52" height="26" rx="13" fill="#d97706"/>
<text x="1080.0" y="589.0" font-family="Inter, 'Segoe UI', 'Helvetica Neue', Arial, sans-serif" font-size="12" font-weight="800" fill="#ffffff" text-anchor="middle" style="">swap</text>
<text x="150" y="647.0" font-family="Inter, 'Segoe UI', 'Helvetica Neue', Arial, sans-serif" font-size="13" font-weight="700" fill="#0f172a" text-anchor="middle" style="">Skills / memory</text>
<rect x="285" y="622" width="350" height="42" rx="12" ry="12" fill="#f1f5f9" stroke="#334155" stroke-width="2" filter="url(#sh)"/>
<rect x="285" y="622" width="6" height="42" rx="3" fill="#334155"/>
<text x="460.0" y="648" font-family="Inter, 'Segoe UI', 'Helvetica Neue', Arial, sans-serif" font-size="12.5" font-weight="700" fill="#0f172a" text-anchor="middle" style="">Built-in skill + memory</text>
<rect x="690" y="622" width="350" height="42" rx="12" ry="12" fill="#fffbeb" stroke="#d97706" stroke-width="2" filter="url(#sh)"/>
<rect x="690" y="622" width="6" height="42" rx="3" fill="#d97706"/>
<text x="865.0" y="648" font-family="Inter, 'Segoe UI', 'Helvetica Neue', Arial, sans-serif" font-size="12.5" font-weight="700" fill="#0f172a" text-anchor="middle" style="">Markdown skills + vector memory</text>
<path d="M 641 643.0 L 684 643.0" fill="none" stroke="#94a3b8" stroke-width="2.2"  marker-end="url(#ar--94a3b8)"/>
<rect x="1054" y="630.0" width="52" height="26" rx="13" fill="#d97706"/>
<text x="1080.0" y="647.0" font-family="Inter, 'Segoe UI', 'Helvetica Neue', Arial, sans-serif" font-size="12" font-weight="800" fill="#ffffff" text-anchor="middle" style="">swap</text>
<text x="610.0" y="34" font-family="Inter, 'Segoe UI', 'Helvetica Neue', Arial, sans-serif" font-size="21" font-weight="800" fill="#0f172a" text-anchor="middle" style="">DeerFlow → Open-DeerFlow — component mapping</text>
<text x="610.0" y="58" font-family="Inter, 'Segoe UI', 'Helvetica Neue', Arial, sans-serif" font-size="13.5" font-weight="normal" fill="#475569" text-anchor="middle" style="">Most of the stack is already open; only hosted search + cloud LLM truly need swapping</text></svg>